<?xml version="1.0" encoding="UTF-8" standalone="no"?>
<!-- Created with Inkscape (http://www.inkscape.org/) -->

<svg
   xmlns:dc="http://purl.org/dc/elements/1.1/"
   xmlns:cc="http://creativecommons.org/ns#"
   xmlns:rdf="http://www.w3.org/1999/02/22-rdf-syntax-ns#"
   xmlns:svg="http://www.w3.org/2000/svg"
   xmlns="http://www.w3.org/2000/svg"
   version="1.1"
   width="28"
   height="20"
   id="svg2">
  <defs
     id="defs4" />
  <metadata
     id="metadata7">
    <rdf:RDF>
      <cc:Work
         rdf:about="">
        <dc:format>image/svg+xml</dc:format>
        <dc:type
           rdf:resource="http://purl.org/dc/dcmitype/StillImage" />
        <dc:title></dc:title>
      </cc:Work>
    </rdf:RDF>
  </metadata>
  <g
     transform="translate(-336,-522.36218)"
     id="layer1">
    <path
       d="m 338,526.36218 h 24 c 1.104,0 2,-0.896 2,-2 0,-1.104 -0.896,-2 -2,-2 h -24 c -1.104,0 -2,0.896 -2,2 0,1.104 0.896,2 2,2 z m 24,4 h -24 c -1.104,0 -2,0.896 -2,2 0,1.104 0.896,2 2,2 h 24 c 1.104,0 2,-0.896 2,-2 0,-1.104 -0.896,-2 -2,-2 z m 0,8 h -24 c -1.104,0 -2,0.896 -2,2 0,1.104 0.896,2 2,2 h 24 c 1.104,0 2,-0.896 2,-2 0,-1.104 -0.896,-2 -2,-2 z"
       id="path2986"
       style="fill:#ffffff" />
  </g>
</svg>
